<?xml version="1.0" encoding="UTF-8" standalone="no"?><!DOCTYPE svg PUBLIC "-//W3C//DTD SVG 1.1//EN" "http://www.w3.org/Graphics/SVG/1.1/DTD/svg11.dtd"><svg width="100%" height="100%" viewBox="0 0 400 400" version="1.1" xmlns="http://www.w3.org/2000/svg" xmlns:xlink="http://www.w3.org/1999/xlink" xml:space="preserve" xmlns:serif="http://www.serif.com/" style="fill-rule:evenodd;clip-rule:evenodd;stroke-linejoin:round;stroke-miterlimit:2;"><path d="M171.977,63.123c0,-1.31 -1.064,-2.374 -2.374,-2.374l-109.718,0c-1.31,0 -2.373,1.064 -2.373,2.374l0,4.747c0,1.31 1.063,2.374 2.373,2.374l109.718,0c1.31,0 2.374,-1.064 2.374,-2.374l0,-4.747Z" style="fill:#dae3ee;"/><path d="M171.977,78.947c0,-1.31 -1.064,-2.374 -2.374,-2.374l-109.718,0c-1.31,0 -2.373,1.064 -2.373,2.374l0,4.747c0,1.31 1.063,2.374 2.373,2.374l109.718,0c1.31,0 2.374,-1.064 2.374,-2.374l0,-4.747Z" style="fill:#e3f0f3;"/><path d="M171.977,94.771c0,-1.31 -1.064,-2.374 -2.374,-2.374l-109.718,0c-1.31,0 -2.373,1.064 -2.373,2.374l0,4.747c0,1.31 1.063,2.374 2.373,2.374l109.718,0c1.31,0 2.374,-1.064 2.374,-2.374l0,-4.747Z" style="fill:#dae3ee;"/><path d="M171.977,110.595c0,-1.31 -1.064,-2.374 -2.374,-2.374l-109.718,0c-1.31,0 -2.373,1.064 -2.373,2.374l0,4.747c0,1.31 1.063,2.373 2.373,2.373l109.718,0c1.31,0 2.374,-1.063 2.374,-2.373l0,-4.747Z" style="fill:#dae3ee;"/><g transform="matrix(0.550674,0,0,0.550674,-106.687,82.3648)"><text x="295px" y="238px" style="font-family:'HelveticaNeue-Bold', 'Helvetica Neue';font-weight:700;font-size:132.624px;fill:#47a9b6;">S<tspan x="374.575px 402.293px 515.952px 590.487px 618.206px " y="238px 238px 238px 238px 238px ">imple</tspan></text><text x="295px" y="355.816px" style="font-family:'HelveticaNeue-Bold', 'Helvetica Neue';font-weight:700;font-size:132.624px;fill:#0b2950;">P<tspan x="376.962px 419.667px 494.202px 524.573px 594.201px 663.828px " y="355.816px 355.816px 355.816px 355.816px 355.816px 355.816px ">roject</tspan></text><text x="295px" y="469.367px" style="font-family:'HelveticaNeue-Bold', 'Helvetica Neue';font-weight:700;font-size:132.624px;fill:#0b2950;">M<tspan x="408.792px 478.42px 550.567px 620.195px 694.73px 764.358px " y="469.367px 469.367px 469.367px 469.367px 469.367px 469.367px ">anager</tspan></text></g><path d="M88.867,63.123c0,-1.31 -1.063,-2.374 -2.373,-2.374l-26.609,0c-1.31,0 -2.373,1.064 -2.373,2.374l0,4.747c0,1.31 1.063,2.374 2.373,2.374l26.609,0c1.31,0 2.373,-1.064 2.373,-2.374l0,-4.747Z" style="fill:#0b2950;"/><path d="M121.805,78.947c0,-1.31 -1.064,-2.374 -2.374,-2.374l-28.19,0c-1.31,0 -2.374,1.064 -2.374,2.374l0,4.747c0,1.31 1.064,2.374 2.374,2.374l28.19,0c1.31,0 2.374,-1.064 2.374,-2.374l0,-4.747Z" style="fill:#47a9b6;"/><path d="M138.919,94.771c0,-1.31 -1.064,-2.374 -2.374,-2.374l-12.366,0c-1.31,0 -2.374,1.064 -2.374,2.374l0,4.747c0,1.31 1.064,2.374 2.374,2.374l12.366,0c1.31,0 2.374,-1.064 2.374,-2.374l0,-4.747Z" style="fill:#0b2950;"/><path d="M171.977,110.595c0,-1.31 -1.064,-2.374 -2.374,-2.374l-28.31,0c-1.31,0 -2.374,1.064 -2.374,2.374l0,4.747c0,1.31 1.064,2.373 2.374,2.373l28.31,0c1.31,0 2.374,-1.063 2.374,-2.373l0,-4.747Z" style="fill:#0b2950;"/><path d="M62.259,44.925l4.747,4.748l-4.747,4.747l-4.747,-4.747l4.747,-4.748Z" style="fill:#e43f00;"/><path d="M166.438,92.525l4.747,4.747l-4.747,4.748l-4.747,-4.748l4.747,-4.747Z" style="fill:#e43f00;"/></svg>